<svg xmlns="http://www.w3.org/2000/svg" xmlns:xlink="http://www.w3.org/1999/xlink" width="1024" zoomAndPan="magnify" viewBox="0 0 768 767.999994" height="1024" preserveAspectRatio="xMidYMid meet" version="1.0"><defs><clipPath id="242730099a"><path d="M 81 94.382812 L 687 94.382812 L 687 673.382812 L 81 673.382812 Z M 81 94.382812 " clip-rule="nonzero"/></clipPath></defs><g clip-path="url(#242730099a)"><path fill="#ffffff" d="M 668.980469 94.535156 C 668.046875 94.550781 667.085938 94.632812 666.171875 94.796875 L 666.117188 94.796875 L 573.507812 110.613281 C 567.617188 111.625 562.679688 115.660156 560.5 121.226562 C 560.5 121.242188 560.5 121.261719 560.5 121.277344 L 517.527344 231.476562 L 98.117188 241.933594 C 93.296875 242.054688 88.769531 244.230469 85.632812 247.863281 C 82.496094 251.496094 80.988281 256.328125 81.574219 261.132812 L 104.726562 452.644531 C 105.679688 460.679688 112.320312 467.054688 120.386719 467.683594 L 419.386719 491.460938 L 478.648438 538.078125 C 478.714844 538.128906 478.785156 538.183594 478.855469 538.234375 C 478.917969 538.277344 479 538.292969 479.066406 538.335938 C 479.128906 538.378906 479.199219 538.445312 479.273438 538.492188 C 490.085938 546.566406 492.769531 557.5625 491.238281 563.675781 C 490.367188 567.15625 489.039062 569.714844 485.878906 571.6875 C 482.722656 573.65625 477.265625 575.085938 467.929688 574.546875 C 467.894531 574.546875 467.859375 574.546875 467.824219 574.546875 C 467.527344 574.539062 467.191406 574.542969 466.890625 574.546875 L 466.734375 574.546875 L 110.125 575.589844 L 110.074219 575.589844 C 100.703125 575.53125 92.816406 583.390625 92.851562 592.757812 C 92.890625 602.125 100.808594 609.957031 110.175781 609.824219 L 110.230469 609.824219 L 136.296875 609.769531 C 126.609375 615.945312 120.113281 626.746094 120.113281 639.011719 C 120.113281 658.089844 135.738281 673.714844 154.816406 673.714844 C 173.894531 673.714844 189.519531 658.089844 189.519531 639.011719 C 189.519531 626.679688 183.007812 615.769531 173.234375 609.613281 L 466.894531 608.78125 C 456.3125 614.746094 449.097656 626.070312 449.097656 639.011719 C 449.097656 658.089844 464.722656 673.714844 483.800781 673.714844 C 502.878906 673.714844 518.503906 658.089844 518.503906 639.011719 C 518.503906 622.441406 506.734375 608.472656 491.136719 605.085938 C 505.886719 599.871094 517.214844 589.113281 524.226562 572.671875 C 524.332031 572.472656 524.417969 572.265625 524.488281 572.050781 C 529.867188 550.546875 520.328125 527.164062 500.660156 511.957031 C 500.609375 511.902344 500.558594 511.851562 500.503906 511.800781 C 500.457031 511.761719 500.445312 511.679688 500.398438 511.644531 C 500.226562 511.433594 500.035156 511.242188 499.828125 511.070312 L 457.839844 478.136719 L 588.796875 142.707031 L 671.882812 128.554688 L 671.9375 128.554688 C 680.664062 127.152344 687.046875 119.019531 686.296875 110.191406 C 685.542969 101.347656 677.835938 94.410156 668.972656 94.53125 Z M 504.882812 257.90625 L 480.742188 319.820312 L 449.261719 319.820312 L 449.261719 259.308594 Z M 437.246094 259.621094 L 437.246094 319.820312 L 379.128906 319.820312 L 379.128906 261.078125 Z M 367.109375 261.339844 L 367.109375 319.820312 L 308.996094 319.820312 L 308.996094 262.796875 Z M 296.976562 263.109375 L 296.976562 319.816406 L 238.859375 319.816406 L 238.859375 264.5625 L 296.976562 263.105469 Z M 226.839844 264.875 L 226.839844 319.820312 L 168.726562 319.820312 L 168.726562 266.332031 Z M 156.707031 266.59375 L 156.707031 319.820312 L 114.09375 319.820312 L 107.800781 267.84375 Z M 115.550781 331.785156 L 156.707031 331.785156 L 156.707031 386.15625 L 122.109375 386.15625 L 115.554688 331.785156 Z M 168.726562 331.785156 L 226.839844 331.785156 L 226.839844 386.15625 L 168.726562 386.15625 Z M 238.859375 331.785156 L 296.976562 331.785156 L 296.976562 386.15625 L 238.859375 386.15625 Z M 308.996094 331.785156 L 367.109375 331.785156 L 367.109375 386.15625 L 308.996094 386.15625 Z M 379.128906 331.785156 L 437.246094 331.785156 L 437.246094 386.15625 L 379.128906 386.15625 Z M 449.261719 331.785156 L 476.109375 331.785156 L 454.882812 386.15625 L 449.261719 386.15625 Z M 123.574219 398.121094 L 156.714844 398.121094 L 156.714844 437.144531 L 127.996094 434.855469 L 123.574219 398.125 Z M 168.734375 398.121094 L 226.851562 398.121094 L 226.851562 442.710938 L 168.734375 438.078125 Z M 238.867188 398.121094 L 296.984375 398.121094 L 296.984375 448.277344 L 238.867188 443.699219 Z M 309.003906 398.121094 L 367.117188 398.121094 L 367.117188 453.894531 L 309.003906 449.265625 Z M 379.136719 398.121094 L 437.253906 398.121094 L 437.253906 431.210938 L 426.222656 459.464844 C 424.792969 458.769531 423.230469 458.34375 421.644531 458.214844 L 379.136719 454.832031 Z M 449.273438 398.121094 L 450.15625 398.121094 L 449.273438 400.566406 Z M 154.847656 618.621094 C 166.1875 618.621094 175.242188 627.679688 175.242188 639.019531 C 175.242188 650.355469 166.1875 659.359375 154.847656 659.359375 C 143.507812 659.359375 134.453125 650.359375 134.453125 639.019531 C 134.453125 627.675781 143.507812 618.621094 154.847656 618.621094 Z M 483.820312 618.621094 C 495.160156 618.621094 504.214844 627.679688 504.214844 639.019531 C 504.214844 650.355469 495.160156 659.359375 483.820312 659.359375 C 472.480469 659.359375 463.421875 650.359375 463.421875 639.019531 C 463.421875 627.675781 472.480469 618.621094 483.820312 618.621094 Z M 154.847656 628.300781 C 148.6875 628.300781 143.765625 633.222656 143.765625 639.382812 C 143.765625 645.542969 148.6875 650.410156 154.847656 650.410156 C 161.007812 650.410156 165.929688 645.542969 165.929688 639.382812 C 165.929688 633.222656 161.007812 628.300781 154.847656 628.300781 Z M 483.820312 628.300781 C 477.660156 628.300781 472.738281 633.222656 472.738281 639.382812 C 472.738281 645.542969 477.660156 650.410156 483.820312 650.410156 C 489.980469 650.410156 494.902344 645.542969 494.902344 639.382812 C 494.902344 633.222656 489.980469 628.300781 483.820312 628.300781 Z M 483.820312 628.300781 " fill-opacity="1" fill-rule="nonzero"/></g></svg>